# xmcd
#
# Track frame offsets:
#	150
#	14943
#	25772
#	41190
#	59664
#	70299
#	82574
#	93737
#	102909
#	117901
#	134196
#	146158
#	163299
#	176767
#	188576
#	206061
#	219388
#	231659
#
# Disc length: 3383 seconds
#
# Revision: 1
# Processed by: cddbd v1.5.2PL0 Copyright (c) Steve Scherf et al.
# Submitted via: audiograbber 1.83.01
#
DISCID=1d0d3512
DTITLE=Ohrwürmer - Ohrwürmer Country Songs - CD2
DYEAR=2017
DGENRE=Country
TTITLE0=Dolly Parton - I will always love you
TTITLE1=Billie - All i have to do is dream
TTITLE2=Tina Turner - If this is our last time
TTITLE3=The Bellamy Brothers - If said you had a beautiful body
TTITLE4=Roger Miller - King of the road
TTITLE5=Johnny Cash - I walk the line
TTITLE6=Waylon Jenning - Big mamou
TTITLE7=Dave Dundley - Keep on truckin'
TTITLE8=Frankie Laine - Sixteen tons
TTITLE9=Don Gibson - Green green grass of home
TTITLE10=Wanda Jackson - Sweet dreams
TTITLE11=Lynn Anderson - Blue bayou
TTITLE12=Patti Page - Tennesse waltz
TTITLE13=Sketter Davis - End of the world
TTITLE14=Emmylou Harris - Together again
TTITLE15=Nina Martin - Love me tender
TTITLE16=Tanya Tucker - You are so beautiful
TTITLE17=Kenny Rogers - Have i told you lately that i love you
EXTD=
EXTT0=
EXTT1=
EXTT2=
EXTT3=
EXTT4=
EXTT5=
EXTT6=
EXTT7=
EXTT8=
EXTT9=
EXTT10=
EXTT11=
EXTT12=
EXTT13=
EXTT14=
EXTT15=
EXTT16=
EXTT17=
PLAYORDER=
